<?xml version="1.0" encoding="utf-8"?>
<!-- Generator: Adobe Illustrator 26.0.3, SVG Export Plug-In . SVG Version: 6.00 Build 0)  -->
<svg version="1.1" id="Calque_1" xmlns="http://www.w3.org/2000/svg" xmlns:xlink="http://www.w3.org/1999/xlink" x="0px" y="0px"
	 viewBox="0 0 595.28 517.01" style="enable-background:new 0 0 595.28 517.01;" xml:space="preserve">
<style type="text/css">
	.st0{fill:#FFFFFF;}
</style>
<path d="M929.74,451.06c118.65,0,237.31,0,356,0c0,118.64,0,237.29,0,356c-118.64,0-237.32,0-356,0
	C929.74,688.43,929.74,569.75,929.74,451.06z M1159.3,720.34c0.04-0.25,0.08-0.5,0.12-0.75c-3.38-0.82-6.72-1.91-10.15-2.43
	c-13.24-1.99-26.54-3.59-39.75-5.73c-9.3-1.51-18.55-3.44-27.73-5.56c-13.27-3.08-22.35-11.2-27.31-23.9
	c-3.65-9.33-4.6-19.05-3.92-28.97c0.11-1.6,0.3-3.19,0.45-4.78c-5.01,7.04-6.35,15.07-6.54,23.38c-0.19,8.4,1.13,16.46,5.84,23.73
	c-0.59-0.28-1.04-0.64-1.47-1.02c-6.96-6.23-9.89-14.33-10.64-23.37c-0.65-7.92,0.43-15.66,2.89-23.22
	c1.41-4.33,2.03-8.78,1.36-13.32c-0.27-1.83-0.76-3.62-1.15-5.43c-0.49,2.46-0.35,4.94-1.11,7.1c-1.56,4.43-3.38,8.79-5.49,12.99
	c-3.31,6.57-6.87,13.01-8.78,20.17c-2.12,7.94-3.15,15.94-1.03,24.06c2.75,10.5,8.94,18.69,17.04,25.64
	c1.5,1.29,3.01,1.84,5.03,1.83c37.03-0.19,74.05-0.3,111.08-0.42C1158.46,720.34,1158.88,720.34,1159.3,720.34z M1190.04,545.09
	c-0.27,0.03-0.53,0.05-0.78,0.1c-7.56,1.63-15.11,3.29-22.68,4.85c-1.44,0.3-2.07,0.98-2.5,2.34c-2.22,7.06-3.38,14.29-3.98,21.64
	c-0.93,11.47-0.35,22.83,2.76,33.96c0.87,3.12,2.05,6.16,3.09,9.23c0.15-0.04,0.29-0.07,0.44-0.11c-0.16-4.96-0.13-9.9,1.55-15.03
	c0.44,2.09,0.75,3.82,1.17,5.51c1.58,6.32,3.66,12.44,7.89,17.56c1.15,1.4,2.59,2.56,3.89,3.83c-5.95-16.07-7.86-32.42-6.08-49.25
	c0.3,0.42,0.44,0.86,0.53,1.32c1.11,5.93,2.08,11.89,3.33,17.79c2.11,9.97,5.54,19.42,11.72,27.66c1.78,2.38,3.8,4.59,5.7,6.87
	C1184.42,604.54,1179.93,575.39,1190.04,545.09z M1118.94,540.01c-4.97,0.91-9.81,1.8-14.66,2.69c-9.6,1.76-19.21,3.5-28.81,5.29
	c-2.64,0.49-4.26,2.83-3.79,5.28c0.51,2.65,2.81,4.3,5.43,3.82c16.89-3.08,33.77-6.18,50.66-9.28c20.12-3.69,40.24-7.37,60.36-11.06
	c6.2-1.14,12.41-2.26,18.61-3.39c2.12-0.39,3.69-1.46,4.17-3.67c0.68-3.14-1.71-5.8-5.01-5.48c-1.96,0.19-3.89,0.64-5.83,1
	c-20.88,3.81-41.76,7.63-62.63,11.44c-3.04,0.56-6.09,1.09-9.31,1.66c0-0.84,0-1.44,0-2.04c-0.02-4.78,0.01-9.56-0.08-14.34
	c-0.06-3-1.98-4.97-4.62-4.94c-2.71,0.02-4.58,2.1-4.58,5.15c0.01,4.39,0.06,8.79,0.09,13.18
	C1118.94,536.87,1118.94,538.4,1118.94,540.01z M1040.24,596.42c3.06-0.46,5.91-1.16,8.41-2.88c2.38-1.64,3.44-3.89,3.18-6.78
	c-0.29-3.3-1.7-6.1-3.73-8.63c-1.65-2.06-3.6-3.73-6.44-4.41c1.75-1.42,3.47-1.82,5.33-1.55c3.95,0.57,6.54,2.84,8.01,6.5
	c1.3,3.23,2.83,6.32,5.53,8.66c2.31,2.01,4.97,3.04,8.38,2.89c-3.07-3.35-6.11-6.43-6.4-11.2c2.45,0.44,4.45,1.43,5.62,3.27
	c1.46,2.28,2.85,4.72,3.6,7.29c0.97,3.3,2.78,5.69,5.85,6.84c2.8,1.05,5.77,1.67,8.71,2.26c2.89,0.58,5.22,1.92,6.43,4.58
	c0.8,1.76,1.27,3.74,1.48,5.67c0.35,3.12-0.64,6.05-1.72,8.96c-2.37,6.38-0.76,12.5,4.02,15.6c0.6,0.39,1.28,0.63,1.93,0.95
	c-4.01-6.49-2.69-12.66,0.31-18.84c0.6-1.23,1.06-2.53,1.45-3.84c2.36-7.91,0.07-14.53-6.79-19.05c-2.22-1.46-4.71-2.6-7.2-3.56
	c-2.36-0.9-4.1-2.3-5.14-4.55c-0.94-2.04-1.79-4.12-2.63-6.21c-1.43-3.55-3.25-6.85-6.13-9.45c-6.72-6.06-14.66-7.1-23.11-5.24
	c-7.99,1.75-11.3,6.74-10.4,14.92c0.19,1.69,0.3,3.39,0.44,5.09C1039.56,587.9,1039.89,592.1,1040.24,596.42z M1147.02,554.29
	c-6.93,1.5-13.6,3.02-20.31,4.36c-1.58,0.32-2.28,1.11-2.86,2.47c-3.15,7.37-4.67,15.09-4.81,23.06
	c-0.27,15.32,3.56,29.76,9.79,43.63c0.32,0.71,0.69,1.4,1.04,2.1c-1.84-8.45-2.58-16.89-1.21-25.92c1.24,2.73,2.23,5.09,3.36,7.37
	c1.14,2.31,2.32,4.61,3.66,6.81c1.31,2.14,2.84,4.15,4.28,6.21c0.12-0.07,0.23-0.15,0.35-0.22c-4.63-12.88-7.39-25.96-4.48-39.53
	c1.19,6.08,2.18,12.27,3.65,18.36c1.47,6.1,3.66,11.98,7.67,16.99C1139.37,598.17,1139.97,576.38,1147.02,554.29z M1091.63,663.52
	c0,0.93-0.09,1.88,0.01,2.8c0.61,5.67,2.38,10.84,6.86,14.69c4.02,3.45,9.2,3.69,13.24,0.26c1.95-1.66,3.64-3.85,4.83-6.13
	c2.71-5.17,3.16-10.78,2.15-16.51c-0.84-4.77-2.67-9.05-6.4-12.31c-4.02-3.52-9.23-3.72-13.41-0.39c-1.39,1.11-2.63,2.52-3.62,4
	C1092.56,654.01,1091.54,658.64,1091.63,663.52z M1058.49,622.14c-1.38-3.42-2.65-6.56-3.92-9.7c-0.04-0.1-0.14-0.2-0.14-0.29
	c0.04-0.42,0.04-0.87,0.17-1.27c0.79-2.45,1.64-4.88,2.4-7.34c0.66-2.12,0.13-2.72-2.09-2.51c-0.49,0.05-1,0.1-1.44,0.3
	c-2.38,1.06-4.73,2.17-7.25,3.33c-3.25-2.62-8.75-3.15-11.89-0.9c2.12,1.8,4.29,3.55,6.35,5.42c3.14,2.85,5.34,6.22,6.64,10.38
	c1.71,5.48,3.76,10.88,6.06,16.13c2.01,4.59,3.52,4.69,6.22,0.42c2.54-4.01,4.78-8.25,6.7-12.59c2.74-6.2,4.34-12.75,4.84-19.54
	c0.04-0.55-0.01-1.33-0.35-1.66c-2.77-2.73-6.2-4.02-10.28-4.47c0.67,1.04,1.15,1.84,1.68,2.59c0.82,1.16,1.25,2.36,1.05,3.83
	C1062.45,610.33,1060.76,616.15,1058.49,622.14z M1154.4,706.62c0.01-0.1,0.03-0.19,0.04-0.29c-2.66-0.58-5.33-1.11-7.97-1.75
	c-17.32-4.16-34.71-8.08-51.94-12.6c-12.02-3.15-20.98-10.69-27.17-21.48c-0.17-0.3-0.38-0.59-0.79-1.22
	c-0.13,5.14,0.57,9.72,2.35,14.08c3.77,9.22,10.99,14.5,20.16,17.56c6.51,2.17,13.31,2.1,20.02,2.61
	c12.48,0.96,24.98,1.75,37.47,2.6C1149.18,706.31,1151.79,706.45,1154.4,706.62z M1151.4,665.98c-0.07-4.92-1.27-9.59-4.8-13.36
	c-4.28-4.57-10.21-4.49-14.46,0.09c-6.22,6.71-6.22,20.03,0,26.74c4.42,4.76,10.71,4.63,14.9-0.36
	C1150.21,675.35,1151.35,670.9,1151.4,665.98z M1188.59,653.09c-3.85,1.43-6.1,4.19-7.22,7.81c-0.67,2.19-1.12,4.47-1.38,6.75
	c-0.86,7.42,0.04,14.81,0.74,22.19c1.09,11.49-3.69,20.33-14.06,25.57c-0.54,0.27-1.07,0.54-1.61,0.81
	c0.04,0.16,0.08,0.32,0.12,0.49c1.69,0,3.38,0.07,5.07-0.01c9.7-0.45,15.54-5.74,16.29-15.33c0.33-4.23-0.25-8.53-0.48-12.8
	c-0.34-6.3-0.82-12.6-1.09-18.91c-0.12-2.87,0.33-5.71,1.97-8.2c2.12-3.21,5.73-4.09,9.07-2.21c0.32,0.18,0.64,0.37,0.98,0.57
	c0.97-4.46-3.59-10.75-8.5-11.89c-5.78-1.35-12.61,2.32-14.61,8.35C1180.23,651.21,1184.47,650.22,1188.59,653.09z M1107.54,562.88
	c0.11,0.01-0.06-0.04-0.21-0.01c-6.48,1.4-12.97,2.79-19.43,4.27c-0.47,0.11-1.07,0.78-1.15,1.26c-0.75,4.73-0.36,9.41,0.81,14.03
	c0.12,0.46,0.49,1.02,0.89,1.21c5.32,2.43,10.66,4.8,15.7,7.05C1105.25,581.65,1106.39,572.31,1107.54,562.88z M1155.5,672.78
	c0.01,4.22,0.73,7.9,3.02,11.1c3.39,4.74,8.39,4.71,11.79-0.02c0.22-0.31,0.46-0.62,0.63-0.96c3.3-6.59,3.35-13.15-0.24-19.65
	c-0.34-0.62-0.82-1.17-1.3-1.69c-3.03-3.28-7.06-3.31-10.03,0.01C1156.43,664.85,1155.56,668.87,1155.5,672.78z M1187.44,643.62
	c0.01-0.11,0.01-0.23,0.02-0.34c-1.15-0.33-2.28-0.69-3.44-0.99c-10.8-2.82-21.8-4.61-32.9-5.52c-7.37-0.6-14.79-0.69-22.19-0.66
	c-2.24,0.01-4.5,1.13-6.69,1.91c-0.54,0.19-0.87,1.02-1.29,1.55c0.58,0.43,1.12,1.17,1.75,1.24c2.72,0.32,5.47,0.73,8.18,0.58
	c13.31-0.74,26.56,0.25,39.82,1.06C1176.28,642.81,1181.86,643.23,1187.44,643.62z M1087.1,638.44c-0.5-1.35-0.84-2.31-1.22-3.26
	c-2.47-6.16-3.08-12.12,0.28-18.35c2.14-3.97,1.13-8.18-1.87-11.63c-2.12-2.43-4.92-2.99-8.15-2.36c0.64,1.01,1.22,1.85,1.73,2.75
	c1.72,3.07,1.88,6.22,0.5,9.48c-1.43,3.37-2.49,6.83-1.73,10.55C1077.87,631.53,1082.16,634.97,1087.1,638.44z M1086.82,661.61
	c-0.34-0.22-0.51-0.35-0.7-0.45c-8.37-4.51-13.22-11.09-12.61-21.04c0.19-3.05-1.07-5.73-3.19-8.09c-0.17,0.33-0.31,0.51-0.37,0.72
	c-1.22,4.77-2.51,9.53-3.6,14.33c-0.57,2.52-0.12,5,1.15,7.32C1070.84,660.52,1079.95,664.01,1086.82,661.61z M1035,611.85
	c-4.67,5.35-8.61,10.66-11.28,16.81c-0.21,0.49-0.29,1.22-0.08,1.68c1.49,3.25,4.27,5.08,7.35,6.69c0.21-0.46,0.33-0.7,0.44-0.95
	c2.65-6.19,5.12-12.47,8.86-18.13c0.22-0.34,0.12-1.23-0.17-1.51C1038.52,614.89,1036.82,613.46,1035,611.85z M1170.81,693.57
	c0.02-0.23,0.03-0.45,0.05-0.68c-0.36-0.04-0.71-0.1-1.07-0.12c-8.1-0.54-16.2-1.08-24.3-1.6c-7.23-0.46-14.45-0.93-21.68-1.3
	c-1.57-0.08-3.2,0.07-4.71,0.45c-0.7,0.18-1.72,1.22-1.67,1.77c0.08,0.77,0.9,1.68,1.64,2.12c0.69,0.41,1.7,0.39,2.57,0.36
	c12.01-0.31,24.02-0.69,36.03-0.98C1162.05,693.48,1166.43,693.57,1170.81,693.57z"/>
<path d="M345.04,423.7c-0.62,0-1.24,0-1.86,0c-54.69,0.19-109.38,0.35-164.07,0.62c-2.98,0.02-5.21-0.8-7.43-2.7
	c-11.96-10.27-21.11-22.37-25.17-37.88c-3.14-12-1.61-23.81,1.52-35.54c2.82-10.59,8.08-20.1,12.97-29.8
	c3.12-6.19,5.81-12.64,8.11-19.18c1.12-3.19,0.91-6.85,1.64-10.48c0.58,2.67,1.31,5.33,1.7,8.03c0.99,6.71,0.07,13.28-2.01,19.67
	c-3.62,11.17-5.23,22.58-4.26,34.29c1.1,13.35,5.43,25.31,15.72,34.52c0.64,0.57,1.31,1.1,2.18,1.51
	c-6.96-10.73-8.92-22.64-8.63-35.05c0.28-12.27,2.26-24.12,9.66-34.53c-0.23,2.35-0.51,4.7-0.67,7.06
	c-0.99,14.66,0.41,29,5.79,42.79c7.32,18.75,20.72,30.75,40.33,35.3c13.56,3.14,27.22,5.99,40.95,8.22
	c19.52,3.16,39.16,5.53,58.72,8.46c5.06,0.76,10,2.37,14.99,3.58C345.16,422.96,345.1,423.33,345.04,423.7z"/>
<path d="M390.44,164.85c-14.92,44.75-8.29,87.81,8.95,130.37c-2.82-3.38-5.79-6.64-8.42-10.15c-9.12-12.18-14.19-26.14-17.3-40.86
	c-1.84-8.72-3.29-17.51-4.92-26.27c-0.13-0.68-0.34-1.34-0.78-1.95c-2.63,24.87,0.18,49.01,8.97,72.75
	c-1.93-1.88-4.04-3.59-5.75-5.65c-6.25-7.56-9.33-16.59-11.66-25.93c-0.63-2.51-1.08-5.06-1.73-8.14
	c-2.47,7.58-2.52,14.88-2.29,22.21c-0.22,0.06-0.43,0.11-0.65,0.17c-1.53-4.54-3.27-9.02-4.56-13.63
	c-4.6-16.44-5.45-33.22-4.08-50.16c0.88-10.85,2.59-21.55,5.87-31.97c0.63-2.01,1.57-3.01,3.69-3.45c11.19-2.3,22.34-4.76,33.5-7.17
	C389.66,164.92,390.05,164.9,390.44,164.85z"/>
<path d="M285.42,157.35c0-2.38,0.01-4.64,0-6.9c-0.04-6.49-0.12-12.98-0.13-19.47c-0.01-4.5,2.77-7.57,6.76-7.61
	c3.89-0.04,6.74,2.87,6.82,7.3c0.13,7.06,0.09,14.12,0.12,21.17c0,0.88,0,1.76,0,3.01c4.74-0.85,9.25-1.63,13.74-2.45
	c30.84-5.63,61.68-11.27,92.51-16.9c2.87-0.52,5.73-1.19,8.62-1.47c4.87-0.47,8.4,3.44,7.4,8.09c-0.7,3.25-3.02,4.84-6.15,5.41
	c-9.16,1.67-18.33,3.33-27.49,5.01c-29.72,5.44-59.44,10.89-89.16,16.33c-24.94,4.57-49.88,9.15-74.82,13.7
	c-3.88,0.71-7.27-1.73-8.02-5.65c-0.7-3.62,1.7-7.07,5.6-7.79c14.18-2.63,28.36-5.21,42.55-7.81
	C270.92,160.01,278.09,158.7,285.42,157.35z"/>
<path d="M169.18,240.67c-0.51-6.38-1-12.59-1.51-18.81c-0.2-2.51-0.37-5.02-0.65-7.51c-1.34-12.08,3.56-19.44,15.36-22.03
	c12.48-2.74,24.22-1.22,34.14,7.74c4.25,3.84,6.94,8.71,9.05,13.96c1.24,3.08,2.49,6.16,3.88,9.17c1.53,3.32,4.11,5.38,7.6,6.72
	c3.68,1.41,7.35,3.1,10.63,5.26c10.14,6.67,13.52,16.45,10.04,28.13c-0.58,1.93-1.25,3.87-2.13,5.68
	c-4.44,9.13-6.39,18.25-0.46,27.83c-0.95-0.46-1.97-0.83-2.85-1.4c-7.06-4.58-9.44-13.62-5.93-23.04c1.6-4.3,3.07-8.63,2.55-13.24
	c-0.32-2.85-1.02-5.77-2.19-8.37c-1.79-3.94-5.23-5.92-9.5-6.77c-4.34-0.87-8.73-1.79-12.86-3.33c-4.54-1.7-7.22-5.23-8.64-10.1
	c-1.11-3.79-3.17-7.41-5.32-10.77c-1.73-2.71-4.68-4.17-8.3-4.82c0.43,7.03,4.93,11.58,9.45,16.54c-5.02,0.23-8.96-1.3-12.37-4.27
	c-3.98-3.45-6.24-8.03-8.16-12.79c-2.18-5.41-6-8.76-11.83-9.6c-2.75-0.4-5.3,0.2-7.88,2.29c4.19,1.02,7.07,3.48,9.51,6.52
	c3,3.74,5.07,7.88,5.5,12.75c0.38,4.28-1.18,7.6-4.7,10.02C177.9,238.96,173.7,239.99,169.18,240.67z"/>
<path d="M326.91,178.44c-10.42,32.62-11.3,64.81,0.19,97.02c-5.92-7.41-9.16-16.09-11.33-25.1c-2.17-8.98-3.63-18.14-5.39-27.11
	c-4.29,20.04-0.22,39.36,6.62,58.38c-0.17,0.11-0.34,0.22-0.51,0.33c-2.12-3.05-4.38-6.01-6.32-9.17
	c-1.98-3.24-3.72-6.64-5.41-10.05c-1.67-3.37-3.13-6.85-4.96-10.88c-2.03,13.34-0.94,25.81,1.78,38.28
	c-0.51-1.03-1.06-2.05-1.54-3.1c-9.21-20.5-14.86-41.82-14.47-64.45c0.2-11.77,2.45-23.17,7.1-34.06c0.86-2.01,1.89-3.18,4.22-3.64
	C306.82,182.9,316.67,180.66,326.91,178.44z"/>
<path d="M245.09,339.77c-0.13-7.2,1.37-14.04,5.41-20.08c1.46-2.19,3.29-4.27,5.35-5.91c6.17-4.92,13.86-4.62,19.8,0.58
	c5.51,4.82,8.21,11.14,9.45,18.18c1.49,8.46,0.82,16.74-3.18,24.38c-1.76,3.36-4.25,6.6-7.13,9.05c-5.96,5.07-13.61,4.72-19.55-0.38
	c-6.61-5.68-9.22-13.32-10.13-21.69C244.96,342.54,245.09,341.15,245.09,339.77z M259.98,355.87c3.3,4.35,7.83,4.83,11.73,1.17
	c4.35-4.08,5.83-9.46,6.23-15.13c0.49-6.96-0.58-13.65-5.33-19.14c-4.27-4.92-10.43-4.21-13.63,1.38c4.31-0.88,6.72-0.01,9.28,3.35
	c4.85,6.36,4.8,18.63-0.09,24.98C266.1,355.16,263.54,356.66,259.98,355.87z"/>
<path d="M196.14,278.66c3.35-8.85,5.84-17.45,7.04-26.41c0.29-2.18-0.35-3.95-1.55-5.66c-0.79-1.12-1.49-2.29-2.48-3.83
	c6.03,0.67,11.08,2.57,15.18,6.61c0.5,0.49,0.57,1.64,0.51,2.46c-0.73,10.03-3.11,19.71-7.15,28.86c-2.83,6.41-6.14,12.68-9.89,18.6
	c-3.99,6.31-6.22,6.15-9.19-0.62c-3.4-7.77-6.43-15.74-8.95-23.83c-1.91-6.14-5.17-11.12-9.8-15.33c-3.04-2.76-6.25-5.34-9.39-8
	c4.64-3.31,12.76-2.54,17.56,1.34c3.73-1.72,7.2-3.36,10.71-4.93c0.65-0.29,1.41-0.37,2.13-0.44c3.27-0.31,4.05,0.58,3.08,3.71
	c-1.12,3.63-2.39,7.22-3.55,10.84c-0.19,0.59-0.19,1.24-0.25,1.87c-0.01,0.14,0.14,0.28,0.2,0.43
	C192.23,268.97,194.11,273.61,196.14,278.66z"/>
<path d="M337.79,403.43c-3.85-0.24-7.71-0.46-11.56-0.72c-18.45-1.26-36.9-2.42-55.34-3.84c-9.91-0.76-19.95-0.66-29.57-3.86
	c-13.55-4.51-24.22-12.31-29.78-25.93c-2.63-6.44-3.67-13.19-3.48-20.79c0.61,0.94,0.91,1.36,1.16,1.81
	c9.14,15.94,22.38,27.07,40.13,31.72c25.45,6.67,51.13,12.46,76.72,18.6c3.91,0.94,7.85,1.72,11.77,2.58
	C337.83,403.15,337.81,403.29,337.79,403.43z"/>
<path d="M333.38,343.42c-0.09,7.26-1.77,13.83-6.43,19.37c-6.2,7.36-15.48,7.56-22.01,0.53c-9.19-9.91-9.2-29.59-0.01-39.5
	c6.27-6.76,15.03-6.88,21.36-0.13C331.51,329.25,333.27,336.15,333.38,343.42z M310.45,330.13c5.38-0.13,8.45,1.8,9.86,7.19
	c0.82,3.12,0.97,6.57,0.62,9.78c-0.27,2.44-1.59,4.88-2.88,7.07c-1.42,2.41-3.95,3.25-6.96,3.04c3.63,3.68,7.51,3.71,10.81,0.26
	c3.19-3.32,4.44-7.5,4.78-11.94c0.47-6.07-0.49-11.86-4.81-16.52C318.21,325.08,313.46,325.63,310.45,330.13z"/>
<path d="M388.3,324.38c-6.09-4.24-12.35-2.78-21.73,4.71c2.96-8.91,13.03-14.32,21.58-12.33c7.25,1.69,13.98,10.97,12.55,17.56
	c-0.51-0.3-0.98-0.58-1.45-0.85c-4.92-2.77-10.27-1.48-13.39,3.27c-2.42,3.68-3.09,7.88-2.91,12.11c0.39,9.31,1.1,18.62,1.61,27.93
	c0.34,6.3,1.2,12.66,0.71,18.9c-1.11,14.17-9.74,21.98-24.06,22.65c-2.49,0.12-4.99,0.02-7.49,0.02c-0.06-0.24-0.12-0.48-0.17-0.72
	c0.79-0.4,1.59-0.8,2.38-1.2c15.32-7.75,22.38-20.8,20.77-37.77c-1.03-10.89-2.36-21.81-1.09-32.77c0.39-3.36,1.05-6.74,2.05-9.97
	C379.29,330.57,382.61,326.5,388.3,324.38z"/>
<path d="M268.59,191.12c-1.7,13.94-3.38,27.73-5.01,41.08c-7.43-3.32-15.33-6.82-23.18-10.41c-0.6-0.27-1.14-1.11-1.31-1.78
	c-1.72-6.83-2.31-13.75-1.19-20.73c0.11-0.71,1-1.7,1.69-1.86c9.55-2.18,19.13-4.23,28.7-6.3
	C268.5,191.06,268.75,191.14,268.59,191.12z"/>
<path d="M339.42,353.46c0.09-5.78,1.38-11.72,5.72-16.57c4.38-4.9,10.34-4.85,14.81-0.01c0.71,0.77,1.41,1.59,1.91,2.5
	c5.29,9.6,5.22,19.29,0.35,29.03c-0.25,0.5-0.6,0.96-0.93,1.42c-5.03,6.99-12.4,7.03-17.41,0.03
	C340.5,365.13,339.43,359.7,339.42,353.46z M349.64,365.92c2.37,2.77,5.21,2.66,7.62-0.18c4.67-5.5,4.68-18.28,0.02-23.74
	c-2.83-3.32-6.34-3.01-8.58,0.76c3.49-0.1,5.57,0.89,6.59,4.34c0.91,3.1,1.36,6.5,1.16,9.72
	C356.19,361.06,354.69,364.95,349.64,365.92z"/>
<path d="M386.6,310.39c-8.24-0.57-16.48-1.2-24.72-1.71c-19.59-1.2-39.16-2.66-58.82-1.56c-4,0.22-8.07-0.39-12.09-0.86
	c-0.92-0.11-1.72-1.2-2.58-1.83c0.63-0.79,1.1-2.01,1.9-2.29c3.24-1.15,6.58-2.81,9.88-2.82c10.93-0.05,21.89,0.08,32.77,0.97
	c16.4,1.34,32.64,3.98,48.59,8.15c1.7,0.45,3.39,0.97,5.08,1.46C386.62,310.05,386.61,310.22,386.6,310.39z"/>
<path d="M238.4,302.74c-7.3-5.13-13.65-10.21-15.44-18.94c-1.13-5.48,0.44-10.6,2.55-15.58c2.04-4.82,1.8-9.47-0.74-14
	c-0.74-1.32-1.61-2.57-2.55-4.06c4.76-0.93,8.9-0.11,12.03,3.48c4.43,5.09,5.92,11.31,2.76,17.17c-4.96,9.21-4.07,18.01-0.42,27.11
	C237.16,299.33,237.66,300.75,238.4,302.74z"/>
<path d="M237.98,336.96c-10.15,3.54-23.6-1.6-28.54-10.66c-1.87-3.42-2.54-7.08-1.69-10.81c1.61-7.09,3.52-14.12,5.32-21.17
	c0.08-0.3,0.28-0.57,0.54-1.06c3.14,3.49,4.99,7.45,4.71,11.95c-0.9,14.7,6.26,24.41,18.63,31.08
	C237.22,336.44,237.48,336.63,237.98,336.96z"/>
<path d="M161.44,263.47c2.69,2.37,5.21,4.49,7.57,6.77c0.43,0.42,0.58,1.74,0.25,2.24c-5.53,8.36-9.18,17.63-13.09,26.78
	c-0.16,0.37-0.34,0.73-0.65,1.4c-4.54-2.38-8.65-5.07-10.85-9.88c-0.31-0.68-0.19-1.76,0.12-2.49
	C148.73,279.21,154.54,271.37,161.44,263.47z"/>
<path d="M362.04,384.16c-6.47,0-12.95-0.13-19.41,0.03c-17.74,0.43-35.48,0.99-53.22,1.45c-1.28,0.03-2.77,0.07-3.79-0.54
	c-1.1-0.65-2.31-1.99-2.43-3.13c-0.08-0.82,1.43-2.35,2.46-2.61c2.24-0.56,4.65-0.78,6.96-0.66c10.68,0.55,21.35,1.24,32.03,1.92
	c11.97,0.76,23.93,1.57,35.89,2.37c0.53,0.04,1.05,0.12,1.58,0.18C362.09,383.49,362.06,383.82,362.04,384.16z"/>
<path class="st0" d="M259.98,355.87c3.56,0.79,6.12-0.71,8.19-3.39c4.89-6.34,4.94-18.62,0.09-24.98c-2.56-3.36-4.97-4.23-9.28-3.35
	c3.2-5.59,9.36-6.31,13.63-1.38c4.75,5.49,5.82,12.18,5.33,19.14c-0.4,5.67-1.88,11.05-6.23,15.13
	C267.81,360.7,263.28,360.22,259.98,355.87z"/>
<path class="st0" d="M310.45,330.13c3.02-4.5,7.76-5.05,11.41-1.11c4.33,4.66,5.28,10.45,4.81,16.52
	c-0.34,4.43-1.59,8.62-4.78,11.94c-3.3,3.44-7.19,3.41-10.81-0.26c3.01,0.21,5.55-0.63,6.96-3.04c1.28-2.19,2.6-4.63,2.88-7.07
	c0.36-3.21,0.2-6.67-0.62-9.78C318.9,331.92,315.83,330,310.45,330.13z"/>
<path class="st0" d="M349.64,365.92c5.04-0.97,6.55-4.86,6.81-9.1c0.2-3.22-0.25-6.62-1.16-9.72c-1.02-3.46-3.1-4.45-6.59-4.34
	c2.23-3.77,5.75-4.08,8.58-0.76c4.66,5.47,4.65,18.25-0.02,23.74C354.85,368.58,352.01,368.7,349.64,365.92z"/>
</svg>
